<svg aria-hidden="true" style="position: absolute; width: 0; height: 0; overflow: hidden;" version="1.1" xmlns="http://www.w3.org/2000/svg" xmlns:xlink="http://www.w3.org/1999/xlink">
<defs>
<symbol id="icon-checkmark-outline" viewBox="0 0 20 20">
<path d="M2.93 17.070c-1.884-1.821-3.053-4.37-3.053-7.193 0-5.523 4.477-10 10-10 2.823 0 5.372 1.169 7.19 3.050l0.003 0.003c1.737 1.796 2.807 4.247 2.807 6.947 0 5.523-4.477 10-10 10-2.7 0-5.151-1.070-6.95-2.81l0.003 0.003zM15.66 15.66c1.449-1.449 2.344-3.45 2.344-5.66 0-4.421-3.584-8.004-8.004-8.004-2.21 0-4.211 0.896-5.66 2.344v0c-1.449 1.449-2.344 3.45-2.344 5.66 0 4.421 3.584 8.004 8.004 8.004 2.21 0 4.211-0.896 5.66-2.344v0zM6.7 9.29l2.3 2.31 4.3-4.3 1.4 1.42-5.7 5.68-3.7-3.7 1.4-1.42z"></path>
</symbol>
<symbol id="icon-chevron-thin-down" viewBox="0 0 20 20">
<path d="M17.418 6.109c0.272-0.268 0.709-0.268 0.979 0s0.271 0.701 0 0.969l-7.908 7.83c-0.27 0.268-0.707 0.268-0.979 0l-7.908-7.83c-0.27-0.268-0.27-0.701 0-0.969s0.709-0.268 0.979 0l7.419 7.141 7.418-7.141z"></path>
</symbol>
<symbol id="icon-calendar" viewBox="0 0 20 20">
<path d="M17 3h-1v2h-3v-2h-6v2h-3v-2h-1c-1.101 0-2 0.9-2 2v12c0 1.1 0.899 2 2 2h14c1.1 0 2-0.9 2-2v-12c0-1.1-0.9-2-2-2zM17 17h-14v-8h14v8zM6.5 1h-2v3.5h2v-3.5zM15.5 1h-2v3.5h2v-3.5z"></path>
</symbol>
<symbol id="icon-cross" viewBox="0 0 20 20">
<path d="M14.348 14.849c-0.469 0.469-1.229 0.469-1.697 0l-2.651-3.030-2.651 3.029c-0.469 0.469-1.229 0.469-1.697 0-0.469-0.469-0.469-1.229 0-1.697l2.758-3.15-2.759-3.152c-0.469-0.469-0.469-1.228 0-1.697s1.228-0.469 1.697 0l2.652 3.031 2.651-3.031c0.469-0.469 1.228-0.469 1.697 0s0.469 1.229 0 1.697l-2.758 3.152 2.758 3.15c0.469 0.469 0.469 1.229 0 1.698z"></path>
</symbol>
<symbol id="icon-emoji-happy" viewBox="0 0 20 20">
<path d="M10 0.4c-5.302 0-9.6 4.298-9.6 9.6s4.298 9.6 9.6 9.6c5.301 0 9.6-4.298 9.6-9.601 0-5.301-4.299-9.599-9.6-9.599zM10 17.599c-4.197 0-7.6-3.402-7.6-7.6s3.402-7.599 7.6-7.599c4.197 0 7.601 3.402 7.601 7.6s-3.404 7.599-7.601 7.599zM7.501 9.75c0.828 0 1.499-0.783 1.499-1.75s-0.672-1.75-1.5-1.75-1.5 0.783-1.5 1.75 0.672 1.75 1.501 1.75zM12.5 9.75c0.829 0 1.5-0.783 1.5-1.75s-0.672-1.75-1.5-1.75-1.5 0.784-1.5 1.75 0.672 1.75 1.5 1.75zM14.341 11.336c-0.363-0.186-0.815-0.043-1.008 0.32-0.034 0.066-0.869 1.593-3.332 1.593-2.451 0-3.291-1.513-3.333-1.592-0.188-0.365-0.632-0.514-1.004-0.329-0.37 0.186-0.52 0.636-0.335 1.007 0.050 0.099 1.248 2.414 4.672 2.414 3.425 0 4.621-2.316 4.67-2.415 0.184-0.367 0.036-0.81-0.33-0.998z"></path>
</symbol>
<symbol id="icon-heart-outlined" viewBox="0 0 20 20">
<path d="M17.19 4.156c-1.672-1.535-4.383-1.535-6.055 0l-1.135 1.041-1.136-1.041c-1.672-1.535-4.382-1.535-6.054 0-1.881 1.726-1.881 4.519 0 6.245l7.19 6.599 7.19-6.599c1.88-1.726 1.88-4.52 0-6.245zM16.124 9.375l-6.124 5.715-6.125-5.715c-0.617-0.567-0.856-1.307-0.856-2.094s0.138-1.433 0.756-1.999c0.545-0.501 1.278-0.777 2.063-0.777s1.517 0.476 2.062 0.978l2.1 1.825 2.099-1.826c0.546-0.502 1.278-0.978 2.063-0.978s1.518 0.276 2.063 0.777c0.618 0.566 0.755 1.212 0.755 1.999s-0.238 1.528-0.856 2.095z"></path>
</symbol>
<symbol id="icon-heart" viewBox="0 0 20 20">
<path d="M17.19 4.155c-1.672-1.534-4.383-1.534-6.055 0l-1.135 1.042-1.136-1.042c-1.672-1.534-4.382-1.534-6.054 0-1.881 1.727-1.881 4.52 0 6.246l7.19 6.599 7.19-6.599c1.88-1.726 1.88-4.52 0-6.246z"></path>
</symbol>
<symbol id="icon-location-pin" viewBox="0 0 20 20">
<path d="M10 2.009c-2.762 0-5 2.229-5 4.99 0 4.774 5 11 5 11s5-6.227 5-11c0-2.76-2.238-4.99-5-4.99zM10 9.76c-1.492 0-2.7-1.209-2.7-2.7s1.208-2.7 2.7-2.7c1.49 0 2.699 1.209 2.699 2.7s-1.209 2.7-2.699 2.7z"></path>
</symbol>
<symbol id="icon-mail" viewBox="0 0 20 20">
<path d="M1.574 5.286c0.488 0.262 7.248 3.894 7.5 4.029s0.578 0.199 0.906 0.199c0.328 0 0.654-0.064 0.906-0.199s7.012-3.767 7.5-4.029c0.489-0.263 0.951-1.286 0.054-1.286h-16.919c-0.897 0-0.435 1.023 0.053 1.286zM18.613 7.489c-0.555 0.289-7.387 3.849-7.727 4.027s-0.578 0.199-0.906 0.199-0.566-0.021-0.906-0.199-7.133-3.739-7.688-4.028c-0.39-0.204-0.386 0.035-0.386 0.219s0 7.293 0 7.293c0 0.42 0.566 1 1 1h16c0.434 0 1-0.58 1-1 0 0 0-7.108 0-7.292s0.004-0.423-0.387-0.219z"></path>
</symbol>
<symbol id="icon-menu" viewBox="0 0 20 20">
<path d="M16.4 9h-12.8c-0.552 0-0.6 0.447-0.6 1s0.048 1 0.6 1h12.8c0.552 0 0.6-0.447 0.6-1s-0.048-1-0.6-1zM16.4 13h-12.8c-0.552 0-0.6 0.447-0.6 1s0.048 1 0.6 1h12.8c0.552 0 0.6-0.447 0.6-1s-0.048-1-0.6-1zM3.6 7h12.8c0.552 0 0.6-0.447 0.6-1s-0.048-1-0.6-1h-12.8c-0.552 0-0.6 0.447-0.6 1s0.048 1 0.6 1z"></path>
</symbol>
<symbol id="icon-phone" viewBox="0 0 20 20">
<path d="M11.229 11.229c-1.583 1.582-3.417 3.096-4.142 2.371-1.037-1.037-1.677-1.941-3.965-0.102-2.287 1.838-0.53 3.064 0.475 4.068 1.16 1.16 5.484 0.062 9.758-4.211 4.273-4.274 5.368-8.598 4.207-9.758-1.005-1.006-2.225-2.762-4.063-0.475s-0.936 2.927 0.103 3.965c0.722 0.725-0.791 2.559-2.373 4.142z"></path>
</symbol>
<symbol id="icon-bike" viewBox="0 0 32 32">
<path d="M24 9h-4v-2h4c0.552 0 1 0.447 1 1 0 0.552-0.448 1-1 1zM21 0c0-1.657-1.343-3-3-3h-5c-1.657 0-3 1.343-3 3v6h-1v-6c0-2.209 1.791-4 4-4h5c2.209 0 4 1.791 4 4v6h-1v-6zM11 9h-4c-0.553 0-1-0.448-1-1 0-0.553 0.447-1 1-1h4v2zM15.5 11.5c-1.934 0-3.5-1.567-3.5-3.5 0-1.934 1.566-3.5 3.5-3.5s3.5 1.566 3.5 3.5c0 1.933-1.567 3.5-3.5 3.5zM15.5 6c-1.104 0-2 0.896-2 2s0.896 2 2 2 2-0.896 2-2-0.896-2-2-2zM12.112 10.106c0.706 1.133 1.954 1.894 3.388 1.894s2.681-0.761 3.388-1.894c1.78 0.405 3.112 1.991 3.112 3.894v10c0 1.861-1.278 3.412-3 3.858v-5.421c0-1.933-1.567-3.5-3.5-3.5s-3.5 1.567-3.5 3.5v5.421c-1.723-0.446-3-1.997-3-3.858v-10c0-1.903 1.332-3.489 3.112-3.894zM15.5 20c1.381 0 2.5 1.119 2.5 2.5v7c0 1.381-1.119 2.5-2.5 2.5s-2.5-1.119-2.5-2.5v-7c0-1.381 1.119-2.5 2.5-2.5z"></path>
</symbol>
<symbol id="icon-motorcycle" viewBox="0 0 24 24">
<path d="M17.484 17.016q1.031 0 1.758-0.75t0.727-1.781-0.727-1.758-1.758-0.727-1.781 0.727-0.75 1.758 0.75 1.781 1.781 0.75zM8.859 15.281l-2.859-0.047v-1.5h2.859q-0.563-1.734-2.391-1.734-1.031 0-1.758 0.727t-0.727 1.758 0.727 1.781 1.758 0.75q0.75 0 1.477-0.516t0.914-1.219zM17.484 9.984q1.875 0 3.188 1.313t1.313 3.188-1.313 3.188-3.188 1.313-3.188-1.313-1.313-3.188q0-0.094 0.023-0.234t0.023-0.234l-2.109 1.266q-0.281 1.547-1.57 2.625t-2.836 1.078q-1.875 0-3.188-1.313t-1.313-3.188 1.289-3.188 3.164-1.313h8.109l-1.969-1.969h-3.609v-2.016h4.406l4.031 4.031q0-0.047 0.047-0.047z"></path>
</symbol>
<symbol id="icon-copyright" viewBox="0 0 24 28">
<path d="M17.969 16.781v1.703c0 2.203-3.516 3.016-5.719 3.016-4.281 0-7.5-3.266-7.5-7.578 0-4.234 3.187-7.422 7.422-7.422 1.547 0 5.594 0.547 5.594 3.031v1.703c0 0.141-0.109 0.25-0.25 0.25h-1.844c-0.141 0-0.25-0.109-0.25-0.25v-1.094c0-0.984-1.891-1.437-3.172-1.437-2.922 0-4.953 2.109-4.953 5.141 0 3.141 2.125 5.437 5.078 5.437 1.125 0 3.25-0.422 3.25-1.406v-1.094c0-0.141 0.109-0.25 0.234-0.25h1.859c0.125 0 0.25 0.109 0.25 0.25zM12 4c-5.516 0-10 4.484-10 10s4.484 10 10 10 10-4.484 10-10-4.484-10-10-10zM24 14c0 6.625-5.375 12-12 12s-12-5.375-12-12 5.375-12 12-12v0c6.625 0 12 5.375 12 12z"></path>
</symbol>
<symbol id="icon-motorcycle1" viewBox="0 0 36 28">
<path d="M35.953 16.188c0.5 4.391-3.078 8.078-7.438 7.797-3.344-0.219-6.125-2.891-6.469-6.234-0.25-2.375 0.688-4.516 2.281-5.953l-1.109-1.672c-1.969 1.641-3.219 4.094-3.219 6.844 0 0.562-0.438 1.031-1 1.031h-5.078c-0.484 3.391-3.391 6-6.922 6-3.859 0-7-3.141-7-7s3.141-7 7-7c0.828 0 1.625 0.156 2.375 0.422l0.375-0.703c-1.203-1.078-2.781-1.719-4.75-1.719h-1c-0.547 0-1-0.453-1-1s0.453-1 1-1h2c3.5 0 5.281 1.437 6 2h9.797l-1.328-2h-3.469c-0.609 0-1.094-0.547-0.984-1.172 0.078-0.484 0.547-0.828 1.031-0.828h3.953c0.328 0 0.641 0.172 0.828 0.438l1.094 1.641 1.781-1.781c0.187-0.187 0.453-0.297 0.719-0.297h1.578c0.547 0 1 0.453 1 1v2c0 0.547-0.453 1-1 1h-2.797l1.797 2.688c1.266-0.609 2.734-0.859 4.297-0.562 2.984 0.547 5.313 3.047 5.656 6.062zM7 22c2.422 0 4.438-1.719 4.906-4h-4.906c-0.344 0-0.672-0.187-0.859-0.484-0.172-0.297-0.187-0.672-0.016-0.984l2.297-4.328c-0.453-0.125-0.922-0.203-1.422-0.203-2.75 0-5 2.25-5 5s2.25 5 5 5zM29 22c2.75 0 5-2.25 5-5s-2.25-5-5-5c-0.672 0-1.297 0.141-1.891 0.375l2.719 4.062c0.313 0.469 0.187 1.094-0.266 1.391-0.172 0.125-0.375 0.172-0.562 0.172-0.328 0-0.641-0.156-0.828-0.453l-2.719-4.062c-0.891 0.906-1.453 2.141-1.453 3.516 0 2.75 2.25 5 5 5z"></path>
</symbol>
</defs>
</svg>
